<svg width="17" height="17" viewBox="0 0 17 17" fill="none" xmlns="http://www.w3.org/2000/svg">
<path d="M13.4449 17H3.55513C1.59981 17 0 15.4002 0 13.4449V3.55513C0 1.59981 1.59981 0 3.55513 0H13.4449C15.4002 0 17 1.59981 17 3.55513V13.4449C17 15.4163 15.4163 17 13.4449 17ZM3.55513 0.646388C1.95532 0.646388 0.646388 1.95532 0.646388 3.55513V13.4449C0.646388 15.0447 1.95532 16.3536 3.55513 16.3536H13.4449C15.0447 16.3536 16.3536 15.0447 16.3536 13.4449V3.55513C16.3536 1.95532 15.0447 0.646388 13.4449 0.646388H3.55513Z" fill="#58595B"/>
<path d="M11.6347 16.6768C11.6347 15.4002 11.6347 14.1236 11.6347 12.8308V11.7642C11.6347 11.7319 11.6509 11.7158 11.6832 11.7158H13.3315H13.3476H13.3638C13.38 11.7158 13.3961 11.6996 13.3961 11.6834C13.4123 11.5218 13.4446 11.3441 13.4608 11.1825C13.4769 11.0209 13.5092 10.8755 13.5254 10.7139C13.5577 10.5846 13.5739 10.4553 13.59 10.3099C13.6062 10.1483 13.6385 10.0028 13.6547 9.84124C13.6547 9.7766 13.6708 9.72812 13.6708 9.66348C13.6708 9.64732 13.6708 9.63116 13.6547 9.63116C13.6385 9.63116 13.6385 9.63116 13.6224 9.63116H11.6994C11.667 9.63116 11.6509 9.615 11.6509 9.58268C11.6509 9.13021 11.6509 8.66158 11.6509 8.20911C11.6509 8.09599 11.667 7.96671 11.7155 7.8536C11.7963 7.6112 11.9579 7.46576 12.2003 7.40112C12.3134 7.3688 12.4265 7.35265 12.5397 7.35265C12.5558 7.35265 12.572 7.35265 12.572 7.35265C12.7174 7.35265 12.8629 7.3688 13.0083 7.3688C13.0406 7.3688 13.0891 7.3688 13.1214 7.3688C13.6385 7.35265 13.6385 7.35265 13.7355 7.35265V5.51044C13.6708 5.49428 13.6062 5.49428 13.5416 5.49428C13.38 5.47812 13.2345 5.46196 13.0729 5.46196C13.0245 5.46196 12.976 5.46196 12.9275 5.46196C12.6851 5.46196 12.4265 5.4458 12.1842 5.4458C12.1195 5.4458 12.0387 5.4458 11.9741 5.4458C11.5054 5.4458 11.0368 5.55892 10.6328 5.81747C10.1803 6.10835 9.87331 6.51234 9.6794 7.02945C9.61476 7.22337 9.56628 7.43344 9.55012 7.64352C9.50164 7.99903 9.50164 8.37071 9.55012 8.72622C9.58244 9.00093 9.56628 9.25949 9.53396 9.5342C9.50164 9.64732 9.53396 9.64732 9.45316 9.64732C8.90373 9.64732 8.3543 9.64732 7.80487 9.64732C7.78871 9.64732 7.78871 9.64732 7.77255 9.64732C7.75639 9.64732 7.74023 9.66348 7.74023 9.67964V9.6958V11.6673C7.74023 11.6996 7.75639 11.7158 7.78871 11.7158H9.45316C9.48548 11.7158 9.50164 11.7319 9.50164 11.7642C9.50164 13.3964 9.50164 15.0447 9.50164 16.6768H11.6347Z" fill="#58595B"/>
</svg>
