<svg width="41" height="59" viewBox="0 0 41 59" fill="none" xmlns="http://www.w3.org/2000/svg">
<path d="M38.2223 10.3998C34.524 3.88642 27.8986 0 20.498 0C13.0975 0 6.47596 3.88642 2.77373 10.3998C-0.924575 16.9131 -0.924575 24.686 2.77373 31.1993L17.6023 57.2967C18.2004 58.3483 19.3059 58.996 20.498 58.996C21.6901 58.996 22.7996 58.3483 23.3937 57.2967L38.2223 31.1993C41.9246 24.686 41.9246 16.9131 38.2223 10.3998Z" fill="#F9F8F6"/>
<path d="M20.4975 3.39856C7.31735 3.39856 -0.921208 17.8967 5.66885 29.4959L20.4975 55.5933L35.3261 29.4959C41.9161 17.9007 33.6776 3.39856 20.4975 3.39856ZM20.4975 27.8246C16.6929 27.8246 13.6123 24.6899 13.6123 20.8275C13.6123 16.961 16.6969 13.8303 20.4975 13.8303C24.302 13.8303 27.3826 16.965 27.3826 20.8275C27.3865 24.6899 24.302 27.8246 20.4975 27.8246Z" fill="#C18562"/>
</svg>
