<svg width="17" height="17" viewBox="0 0 17 17" fill="none" xmlns="http://www.w3.org/2000/svg">
<path d="M11.1987 16.9995C10.6654 16.9995 10.116 16.9833 9.59886 16.9672L8.45152 16.9348H8.38688C7.95057 16.9348 7.53042 16.9348 7.12642 16.9348C6.20532 16.9348 5.2519 16.951 4.31464 16.8702C1.82605 16.644 0.113118 14.8502 0.0323194 12.4101C-0.0323194 9.74377 0 7.0451 0.129278 4.42723C0.258555 1.874 2.06844 0.112596 4.60551 0.047957C7.23954 -0.0328415 9.90589 -0.000522102 12.5399 0.128755C15.1093 0.274193 16.8707 2.08408 16.9515 4.63731C17.0323 7.25518 17 9.93769 16.8546 12.5717C16.7253 15.0442 14.9316 16.8056 12.3783 16.9672C12.0067 16.9995 11.6027 16.9995 11.1987 16.9995ZM8.43536 16.3046L9.61502 16.3369C10.52 16.3692 11.4411 16.3854 12.3622 16.3369C14.5599 16.2077 16.1112 14.6886 16.2243 12.5556C16.3698 9.93769 16.4021 7.27134 16.3213 4.66963C16.2567 2.47191 14.7215 0.904421 12.5238 0.791303C9.90589 0.662025 7.2557 0.629706 4.63783 0.710505C2.44011 0.758984 0.888783 2.27799 0.775665 4.45955C0.646388 7.06126 0.614068 9.74377 0.694867 12.4101C0.759506 14.5109 2.2462 16.0461 4.37928 16.24C5.28422 16.3208 6.22148 16.3208 7.12642 16.3046C7.54658 16.3046 7.95057 16.3046 8.37072 16.3046H8.43536Z" fill="#58595B"/>
<path d="M8.49986 12.3623C6.36678 12.3623 4.6377 10.6332 4.6377 8.50011C4.6377 6.36703 6.36678 4.63794 8.49986 4.63794C10.6329 4.63794 12.362 6.36703 12.362 8.50011C12.362 10.6332 10.6329 12.3623 8.49986 12.3623ZM8.49986 5.28433C6.7223 5.28433 5.28408 6.72254 5.28408 8.50011C5.28408 10.2777 6.7223 11.7159 8.49986 11.7159C10.2774 11.7159 11.7156 10.2777 11.7156 8.50011C11.7156 6.72254 10.2774 5.28433 8.49986 5.28433Z" fill="#58595B"/>
<path d="M13.0081 4.97716C13.5347 4.97716 13.9615 4.5503 13.9615 4.02373C13.9615 3.49717 13.5347 3.07031 13.0081 3.07031C12.4815 3.07031 12.0547 3.49717 12.0547 4.02373C12.0547 4.5503 12.4815 4.97716 13.0081 4.97716Z" fill="#58595B"/>
</svg>
