<svg width="40" height="40" viewBox="0 0 40 40" fill="none" xmlns="http://www.w3.org/2000/svg">
<path d="M20 40C31.0274 40 40 31.0274 40 20C40 13.0704 36.4557 6.95319 31.0863 3.36179C30.9744 3.28525 30.8566 3.2146 30.7448 3.14395C27.642 1.15985 23.9564 0 20 0C8.97262 0 0 8.97262 0 20C0 31.0274 8.97262 40 20 40ZM20 39.3406C18.0277 39.3406 16.126 39.0403 14.3303 38.4928C14.7601 38.5399 15.184 38.5693 15.6138 38.5693C16.544 38.5693 17.4801 38.4575 18.3986 38.2455C18.3986 38.2455 19.4348 38.0041 19.8999 37.7981C20.5417 37.5626 21.1657 37.28 21.7722 36.9385C24.9514 35.1369 27.0945 32.1225 27.8245 28.6959C29.3082 23.6267 34.0477 20.0883 39.3288 20.053C39.3112 30.6918 30.6447 39.3406 20 39.3406ZM39.3229 19.3877C34.5599 19.423 30.2384 22.1666 28.113 26.2997C28.1248 25.6756 28.0895 25.0456 28.0012 24.4098C27.8069 22.932 27.3477 21.519 26.647 20.2002L26.6529 20.1943L26.647 20.1884C27.96 19.3995 29.0904 18.4045 30.0206 17.2093L30.5564 16.4851L30.6211 16.3909V16.385C32.9644 12.8407 33.3412 8.45452 31.6986 4.61584C36.1849 8.0365 39.1345 13.3706 39.3229 19.3877ZM20.0294 21.3247C15.9906 21.254 12.1872 19.0933 10.0854 15.6197C11.5573 14.8366 13.1469 14.3833 14.8072 14.2714C14.819 14.3009 14.8307 14.3244 14.8425 14.3538C14.9779 14.6835 15.1192 15.0132 15.2664 15.3253C15.2841 15.3547 15.2958 15.39 15.3135 15.4195C15.4725 15.7492 15.6373 16.073 15.814 16.3792C15.9611 16.6382 16.1142 16.8914 16.2732 17.1387C16.3262 17.2211 16.3792 17.2976 16.4321 17.38C16.544 17.5449 16.6559 17.7156 16.7677 17.8746C16.8325 17.9629 16.8973 18.0571 16.9679 18.1454C17.0798 18.2926 17.1858 18.4398 17.3035 18.5811C17.3742 18.6694 17.4507 18.7636 17.5213 18.8519C17.6391 18.9932 17.751 19.1286 17.8746 19.2641C17.9511 19.3524 18.0277 19.4348 18.1042 19.5231C18.2278 19.6585 18.3574 19.7939 18.4869 19.9235C18.5634 20 18.64 20.0824 18.7165 20.159C18.8637 20.3003 19.0109 20.4416 19.164 20.577C19.2287 20.6359 19.2935 20.7006 19.3641 20.7595C19.582 20.9538 19.7998 21.1422 20.0294 21.3247ZM27.1298 7.24757C28.0718 5.9111 29.2611 4.81013 30.6623 3.96232C32.5699 7.55372 32.4993 11.7986 30.5093 15.3076C30.4681 15.025 30.421 14.7424 30.368 14.4657C30.3503 14.3833 30.3326 14.3067 30.315 14.2243C30.2738 14.0183 30.2326 13.8181 30.1796 13.612C30.156 13.506 30.1266 13.4001 30.0971 13.2941C30.05 13.1175 30.0029 12.9467 29.95 12.7701C29.9146 12.6582 29.8793 12.5464 29.844 12.4345C29.791 12.2696 29.7321 12.1048 29.6732 11.9399C29.632 11.8281 29.5908 11.7162 29.5496 11.6044C29.4848 11.4395 29.4201 11.2747 29.3494 11.1098C29.3082 11.0038 29.2611 10.8979 29.214 10.7919C29.1375 10.6152 29.055 10.4386 28.9667 10.262C28.9255 10.1737 28.8843 10.0854 28.8372 9.99706C28.7077 9.738 28.5723 9.47895 28.4251 9.2199C28.325 9.04327 28.219 8.86665 28.113 8.69591C28.0777 8.63703 28.0424 8.58404 28.0012 8.52517C27.9246 8.40742 27.8481 8.28967 27.7716 8.17192C27.7303 8.10715 27.6832 8.04239 27.6361 7.97763C27.5596 7.86576 27.4831 7.75979 27.4065 7.64792C27.3594 7.57727 27.3064 7.51251 27.2535 7.44186C27.2299 7.38299 27.1769 7.31233 27.1298 7.24757ZM26.335 19.6114C26.2879 19.529 26.2467 19.4466 26.2055 19.3583C26.1525 19.2523 26.0995 19.1463 26.0524 19.0403C25.9876 18.899 25.9288 18.7577 25.864 18.6164C25.8169 18.5105 25.7757 18.4045 25.7345 18.2985C25.6815 18.1513 25.6285 18.0041 25.5814 17.8569C25.5461 17.751 25.5049 17.645 25.4754 17.539C25.4283 17.3859 25.3871 17.2329 25.3459 17.0857C25.3165 16.9797 25.287 16.8737 25.2635 16.7736C25.2281 16.6147 25.1928 16.4498 25.1634 16.2908C25.1457 16.1908 25.1222 16.0966 25.1045 15.9965C25.0751 15.814 25.0515 15.6314 25.0339 15.4489C25.0221 15.3724 25.0103 15.29 25.0044 15.2134C24.9809 14.9544 24.9632 14.6894 24.9573 14.4304C24.9573 14.3774 24.9573 14.3244 24.9573 14.2714C24.9514 14.0654 24.9514 13.8534 24.9632 13.6473C24.9691 13.5472 24.975 13.4472 24.9809 13.3471C24.9926 13.1881 24.9985 13.0233 25.0162 12.8643C25.028 12.7524 25.0456 12.6406 25.0633 12.5287C25.081 12.3815 25.1045 12.2284 25.1281 12.0812C25.1457 11.9635 25.1752 11.8516 25.1987 11.7339C25.2281 11.5926 25.2576 11.4513 25.2929 11.3041C25.3223 11.1863 25.3577 11.0686 25.3871 10.9567C25.4283 10.8154 25.4636 10.68 25.5049 10.5446C25.5402 10.4268 25.5814 10.315 25.6226 10.1972C25.6697 10.0618 25.7168 9.9264 25.7698 9.79688C25.8169 9.67913 25.864 9.56726 25.9111 9.4554C25.97 9.32588 26.023 9.19046 26.0877 9.06094C26.1407 8.94907 26.1996 8.83721 26.2526 8.72535C26.3173 8.59582 26.388 8.46629 26.4586 8.34266C26.5175 8.23079 26.5823 8.12482 26.647 8.01295C26.6824 7.95996 26.7177 7.90109 26.7471 7.8481C26.7589 7.86576 26.7707 7.87754 26.7825 7.8952C26.965 8.14248 27.1357 8.38976 27.3006 8.63703C27.33 8.68413 27.3653 8.73123 27.3948 8.78422C27.5596 9.04327 27.7245 9.30233 27.8717 9.56138C28.0188 9.82043 28.1601 10.0854 28.2897 10.3503C28.3427 10.4563 28.3839 10.5564 28.4369 10.6623C28.5134 10.8272 28.5958 10.9862 28.6665 11.151C28.7195 11.2688 28.7607 11.3924 28.8137 11.5102C28.8784 11.6632 28.9432 11.8163 28.9962 11.9694C29.0433 12.093 29.0845 12.2225 29.1257 12.3521C29.1787 12.5052 29.2317 12.6523 29.2788 12.8054C29.32 12.9408 29.3553 13.0762 29.3906 13.2117C29.4319 13.3588 29.479 13.506 29.5143 13.6591C29.5496 13.8004 29.579 13.9417 29.6085 14.083C29.6379 14.2302 29.6732 14.3715 29.7027 14.5187C29.7321 14.6659 29.7557 14.819 29.7792 14.9661C29.8028 15.1074 29.8263 15.2487 29.8499 15.39C29.8734 15.549 29.8852 15.708 29.9029 15.8669C29.9146 15.9847 29.9323 16.1083 29.9441 16.2261C28.9844 17.6038 27.7716 18.7401 26.335 19.6114ZM26.3056 7.27701C26.2055 7.43009 26.1113 7.58905 26.023 7.74213C26.0053 7.77745 25.9817 7.81278 25.9582 7.84221C25.8228 8.07183 25.6991 8.30733 25.5814 8.54872C25.5461 8.61348 25.5166 8.68413 25.4872 8.75478C25.4048 8.93141 25.3223 9.10804 25.2517 9.28466C25.2164 9.36709 25.1869 9.44363 25.1516 9.52605C25.081 9.70857 25.0103 9.89108 24.9514 10.0736C24.9279 10.1384 24.9043 10.209 24.8808 10.2738C24.7983 10.521 24.7277 10.7742 24.6629 11.0215C24.6512 11.0627 24.6453 11.1098 24.6335 11.1569C24.5805 11.3689 24.5393 11.5749 24.4981 11.7869C24.4804 11.8693 24.4686 11.9517 24.4569 12.0283C24.4274 12.2108 24.398 12.3933 24.3744 12.5758C24.3627 12.6582 24.3568 12.7348 24.345 12.8172C24.3215 13.0468 24.3038 13.2764 24.292 13.506C24.292 13.5355 24.2861 13.5649 24.2861 13.5943C24.2744 13.8534 24.2744 14.1125 24.2802 14.3715C24.2802 14.4422 24.2861 14.5187 24.292 14.5893C24.2979 14.7777 24.3097 14.9661 24.3273 15.1545C24.3332 15.237 24.345 15.3253 24.3509 15.4077C24.3744 15.602 24.398 15.7904 24.4274 15.9847C24.4392 16.0553 24.4451 16.1201 24.4569 16.1908C24.504 16.4439 24.5511 16.703 24.6158 16.9561C24.6276 17.0091 24.6453 17.0562 24.6571 17.1092C24.6983 17.2623 24.7336 17.4154 24.7807 17.5684C24.6629 17.4448 24.5452 17.3212 24.4215 17.2034C24.4039 17.1858 24.3803 17.1622 24.3627 17.1445C24.1743 16.9561 23.98 16.7795 23.7798 16.6088C23.7386 16.5734 23.7033 16.544 23.6621 16.5087C23.4972 16.3674 23.3324 16.2379 23.1557 16.1083C23.1086 16.073 23.0556 16.0318 23.0085 15.9965C22.8084 15.8493 22.6082 15.708 22.4021 15.5785C22.3903 15.5726 22.3786 15.5608 22.3668 15.5549C22.1431 15.4136 21.9135 15.2782 21.6838 15.1487C21.6426 15.1251 21.5955 15.1016 21.5543 15.078C21.3659 14.9779 21.1716 14.8778 20.9832 14.7895C20.9243 14.7601 20.8714 14.7365 20.8125 14.7071C20.5946 14.607 20.3768 14.5128 20.1531 14.4304C20.1354 14.4245 20.1119 14.4127 20.0942 14.4068C19.8528 14.3126 19.6055 14.2302 19.3524 14.1537C19.2935 14.136 19.2346 14.1183 19.1699 14.1007C18.9815 14.0418 18.7872 13.9947 18.5929 13.9476C18.5163 13.9299 18.4457 13.9123 18.3692 13.8946C18.1572 13.8475 17.9452 13.8063 17.7274 13.771C17.6862 13.7651 17.645 13.7533 17.6038 13.7474C17.3506 13.7062 17.0974 13.6768 16.8384 13.6532C16.7618 13.6473 16.6853 13.6414 16.6088 13.6356C16.4204 13.6179 16.2261 13.612 16.0318 13.6061C15.9494 13.6061 15.8669 13.6002 15.7786 13.6002C15.7256 13.6002 15.6668 13.5943 15.6138 13.5943C15.4901 13.5943 15.3665 13.5943 15.2429 13.6002C13.7945 9.64969 13.9358 5.21637 15.6197 1.34825C19.7998 1.87224 23.6679 4.02708 26.3056 7.27701ZM21.0892 21.2894C20.9714 21.2011 20.8537 21.1127 20.7359 21.0244C20.63 20.942 20.524 20.8655 20.418 20.783C20.2826 20.6771 20.1531 20.5652 20.0235 20.4533C19.9293 20.3709 19.8293 20.2885 19.7351 20.2061C19.6055 20.0883 19.4819 19.9706 19.3524 19.8469C19.2641 19.7645 19.1699 19.6762 19.0815 19.5938C18.9579 19.4701 18.8343 19.3347 18.7106 19.2052C18.6282 19.1169 18.5458 19.0344 18.4634 18.9461C18.3397 18.8107 18.2278 18.6694 18.1101 18.5281C18.0336 18.4398 17.957 18.3574 17.8864 18.2632C17.7686 18.116 17.6568 17.9629 17.539 17.8098C17.4742 17.7215 17.4095 17.6391 17.3447 17.5508C17.2211 17.38 17.1092 17.2093 16.9915 17.0327C16.9444 16.9561 16.8914 16.8855 16.8384 16.8089C16.6794 16.5558 16.5205 16.2967 16.3733 16.0377C16.2261 15.7786 16.0907 15.5196 15.9611 15.2487C15.9317 15.1958 15.9082 15.1428 15.8787 15.0839C15.7551 14.8248 15.6314 14.554 15.5196 14.2773C15.5137 14.2596 15.5078 14.242 15.5019 14.2302C15.5608 14.2302 15.6197 14.2302 15.6844 14.2302C15.8198 14.2302 15.9553 14.2361 16.0907 14.242C16.2143 14.2479 16.3379 14.2538 16.4616 14.2596C16.6147 14.2714 16.7618 14.2832 16.9149 14.3009C17.0209 14.3126 17.1328 14.3244 17.2387 14.3421C17.3977 14.3656 17.5508 14.3892 17.7097 14.4127C17.8098 14.4304 17.9099 14.4539 18.0159 14.4716C18.169 14.501 18.3279 14.5364 18.481 14.5717C18.5811 14.5952 18.6812 14.6247 18.7872 14.6541C18.9344 14.6953 19.0874 14.7365 19.2346 14.7836C19.3406 14.819 19.4466 14.8543 19.5525 14.8955C19.688 14.9426 19.8293 14.9897 19.9647 15.0427C20.0824 15.0898 20.1943 15.1369 20.312 15.1899C20.4357 15.2429 20.5534 15.29 20.6771 15.3488C20.8125 15.4136 20.942 15.4843 21.0774 15.549C21.1716 15.5961 21.2717 15.6432 21.3659 15.6962C21.5602 15.8022 21.7486 15.9199 21.937 16.0377C21.9664 16.0553 22.0018 16.073 22.0312 16.0907C22.2549 16.232 22.4728 16.385 22.6847 16.544C22.7083 16.5617 22.7318 16.5793 22.7495 16.597C22.9379 16.7383 23.1204 16.8855 23.297 17.0327C23.35 17.0798 23.403 17.1269 23.456 17.174C23.5973 17.3035 23.7445 17.4271 23.8799 17.5626C23.9447 17.6273 24.0035 17.6921 24.0683 17.7568C24.1919 17.8805 24.3097 18.0041 24.4274 18.1336C24.4981 18.2102 24.5629 18.2867 24.6276 18.3692C24.7336 18.4928 24.8396 18.6164 24.9397 18.746C25.0044 18.8343 25.0692 18.9226 25.1398 19.0109C25.234 19.1345 25.3223 19.2641 25.4107 19.3936C25.4754 19.4878 25.5343 19.5879 25.5991 19.6821C25.652 19.7586 25.6991 19.841 25.7462 19.9235C24.2861 20.7183 22.7259 21.1716 21.0892 21.2894ZM20 0.665293C23.7033 0.665293 27.1651 1.71328 30.1089 3.52664C28.7724 4.36856 27.6303 5.43421 26.7 6.70592L26.6941 6.69414L26.6883 6.70592C24.2273 3.75037 20.783 1.68973 17.015 0.894907C17.9865 0.741831 18.9873 0.665293 20 0.665293ZM14.9073 1.34825C13.2941 5.23992 13.1763 9.64969 14.5658 13.612H14.554L14.5599 13.6238C12.7583 13.7769 11.045 14.3009 9.46129 15.1958L9.1728 15.3606L9.33765 15.6491C11.5514 19.5584 15.7669 21.9841 20.2296 21.9841C20.4475 21.9841 20.8949 21.9664 20.8949 21.9664L21.9017 21.8664C23.3559 21.6662 24.7513 21.2187 26.0642 20.5181C26.7236 21.7604 27.1593 23.0968 27.3418 24.4981C27.9246 28.8666 26.0642 33.0939 22.5611 35.6314C22.8613 35.2016 23.1145 34.7306 23.3088 34.2184C24.1743 31.9341 23.8387 29.1434 22.4728 27.2652C20.6476 24.7513 13.3176 19.5349 1.33059 25.0397C0.894907 23.4324 0.659405 21.7427 0.659405 20C0.665293 11.1039 6.70592 3.5914 14.9073 1.34825ZM21.9429 27.6538C23.1616 29.3318 23.4737 31.9341 22.6906 33.9829C22.2844 35.0545 21.4483 36.3674 19.7233 37.1563C16.2496 38.4457 12.3462 38.0453 9.16691 35.9847L9.15514 36.0024C5.55785 33.559 2.82602 29.9323 1.51899 25.6874C13.1528 20.2944 20.2002 25.2576 21.9429 27.6538Z" fill="#58595B"/>
</svg>
