<svg width="178" height="42" viewBox="0 0 178 42" fill="none" xmlns="http://www.w3.org/2000/svg">
<path d="M0 20.88C0 9.31 8.73 0 21.06 0C28.52 0 35.06 3.82 38.41 9.72L35.69 11.28C33.03 6.31 27.42 2.95 21.06 2.95C10.42 2.95 3.07 10.93 3.07 20.88C3.07 30.83 10.42 38.81 21.06 38.81C27.48 38.81 33.15 35.4 35.81 30.31L38.53 31.87C35.23 37.83 28.64 41.76 21.06 41.76C8.74 41.76 0 32.45 0 20.88Z" fill="#58595B"/>
<path d="M53.0098 20.88C53.0098 9.31 62.2098 0 73.8898 0C85.5798 0 94.7698 9.31 94.7698 20.88C94.7698 32.45 85.5698 41.76 73.8898 41.76C62.1998 41.76 53.0098 32.45 53.0098 20.88ZM91.6998 20.88C91.6998 10.93 83.8898 2.95 73.8798 2.95C63.8698 2.95 56.0598 10.93 56.0598 20.88C56.0598 30.83 63.8698 38.81 73.8798 38.81C83.8898 38.82 91.6998 30.83 91.6998 20.88Z" fill="#58595B"/>
<path d="M123.11 24.47V41.13H120.04V24.47L105.29 0.640015H108.76L121.6 21.52L134.38 0.640015H137.85L123.11 24.47Z" fill="#58595B"/>
<path d="M149.77 32.2193L152.43 30.6593C153.82 35.5193 157.93 38.8193 164.58 38.8193C171.35 38.8193 174.76 35.3493 174.76 30.7193C174.76 25.8593 170.48 24.0093 164.29 22.0393C157.52 19.8393 151.45 17.9293 151.45 10.8793C151.45 4.22928 156.83 0.00927734 163.71 0.00927734C170.36 0.00927734 174.76 3.82928 176.72 8.50928L174.12 9.95928C172.62 6.31928 169.49 2.95928 163.71 2.95928C158.1 2.95928 154.57 6.25928 154.57 10.7693C154.57 15.6293 158.68 17.1293 164.46 19.0393C171.63 21.4093 177.88 23.6693 177.88 30.6693C177.88 37.3793 172.62 41.7793 164.58 41.7793C157 41.7593 151.62 37.9493 149.77 32.2193Z" fill="#58595B"/>
</svg>
