<svg width="17" height="17" viewBox="0 0 17 17" fill="none" xmlns="http://www.w3.org/2000/svg">
<path d="M15.9001 15.1901L10.5601 9.85012C12.5501 7.50012 12.4601 3.97012 10.2401 1.75012C7.90012 -0.589883 4.09012 -0.589883 1.75012 1.75012C-0.589883 4.09012 -0.589883 7.90012 1.75012 10.2401C2.92012 11.4101 4.46012 11.9901 5.99012 11.9901C7.37012 11.9901 8.73012 11.4901 9.84012 10.5501L15.1801 15.8901C15.2801 15.9901 15.4101 16.0401 15.5301 16.0401C15.6501 16.0401 15.7901 15.9901 15.8801 15.8901C16.0901 15.7001 16.0901 15.3801 15.9001 15.1901ZM2.46012 9.53012C0.510117 7.58012 0.510117 4.41012 2.46012 2.46012C4.41012 0.510117 7.58012 0.510117 9.53012 2.46012C11.4801 4.41012 11.4801 7.58012 9.53012 9.53012C7.58012 11.4801 4.41012 11.4801 2.46012 9.53012Z" fill="#58595B"/>
</svg>
