<svg width="40" height="40" viewBox="0 0 40 40" fill="none" xmlns="http://www.w3.org/2000/svg">
<path d="M20 33.5C12.56 33.5 6.5 27.44 6.5 20C6.5 12.56 12.56 6.5 20 6.5C27.44 6.5 33.5 12.56 33.5 20C33.5 27.44 27.44 33.5 20 33.5ZM20 7.5C13.11 7.5 7.5 13.11 7.5 20C7.5 26.89 13.11 32.5 20 32.5C26.89 32.5 32.5 26.89 32.5 20C32.5 13.11 26.89 7.5 20 7.5Z" fill="#58595B"/>
<path d="M12.5498 20.22L21.2998 16.61C22.1598 16.23 25.0898 15.03 25.0898 15.03C25.0898 15.03 26.4398 14.5 26.3298 15.78C26.2898 16.31 25.9898 18.15 25.6898 20.14L24.7498 26.04C24.7498 26.04 24.6698 26.9 24.0398 27.05C23.3998 27.2 22.3498 26.52 22.1598 26.37C22.0098 26.26 19.3398 24.57 18.3698 23.74C18.1098 23.51 17.8098 23.06 18.4098 22.54C19.7598 21.3 21.3798 19.76 22.3598 18.78C22.8098 18.33 23.2598 17.28 21.3798 18.55L16.0798 22.12C16.0798 22.12 15.4798 22.5 14.3498 22.16C13.2198 21.82 11.9098 21.37 11.9098 21.37C11.9098 21.37 11.0098 20.82 12.5498 20.22Z" fill="#58595B"/>
</svg>
