<svg width="68" height="68" viewBox="0 0 68 68" fill="none" xmlns="http://www.w3.org/2000/svg">
<path d="M33.97 67.94C52.7 67.94 67.94 52.7 67.94 33.97C67.94 22.2 61.92 11.81 52.8 5.71C52.61 5.58 52.41 5.46 52.22 5.34C46.95 1.97 40.69 0 33.97 0C15.24 0 0 15.24 0 33.97C0 52.7 15.24 67.94 33.97 67.94ZM33.97 66.82C30.62 66.82 27.39 66.31 24.34 65.38C25.07 65.46 25.79 65.51 26.52 65.51C28.1 65.51 29.69 65.32 31.25 64.96C31.25 64.96 33.01 64.55 33.8 64.2C34.89 63.8 35.95 63.32 36.98 62.74C42.38 59.68 46.02 54.56 47.26 48.74C49.78 40.13 57.83 34.12 66.8 34.06C66.77 52.13 52.05 66.82 33.97 66.82ZM66.79 32.93C58.7 32.99 51.36 37.65 47.75 44.67C47.77 43.61 47.71 42.54 47.56 41.46C47.23 38.95 46.45 36.55 45.26 34.31L45.27 34.3L45.26 34.29C47.49 32.95 49.41 31.26 50.99 29.23L51.9 28L52.01 27.84V27.83C55.99 21.81 56.63 14.36 53.84 7.84C61.46 13.65 66.47 22.71 66.79 32.93ZM34.02 36.22C27.16 36.1 20.7 32.43 17.13 26.53C19.63 25.2 22.33 24.43 25.15 24.24C25.17 24.29 25.19 24.33 25.21 24.38C25.44 24.94 25.68 25.5 25.93 26.03C25.96 26.08 25.98 26.14 26.01 26.19C26.28 26.75 26.56 27.3 26.86 27.82C27.11 28.26 27.37 28.69 27.64 29.11C27.73 29.25 27.82 29.38 27.91 29.52C28.1 29.8 28.29 30.09 28.48 30.36C28.59 30.51 28.7 30.67 28.82 30.82C29.01 31.07 29.19 31.32 29.39 31.56C29.51 31.71 29.64 31.87 29.76 32.02C29.96 32.26 30.15 32.49 30.36 32.72C30.49 32.87 30.62 33.01 30.75 33.16C30.96 33.39 31.18 33.62 31.4 33.84C31.53 33.97 31.66 34.11 31.79 34.24C32.04 34.48 32.29 34.72 32.55 34.95C32.66 35.05 32.77 35.16 32.89 35.26C33.26 35.59 33.63 35.91 34.02 36.22ZM46.08 12.31C47.68 10.04 49.7 8.17 52.08 6.73C55.32 12.83 55.2 20.04 51.82 26C51.75 25.52 51.67 25.04 51.58 24.57C51.55 24.43 51.52 24.3 51.49 24.16C51.42 23.81 51.35 23.47 51.26 23.12C51.22 22.94 51.17 22.76 51.12 22.58C51.04 22.28 50.96 21.99 50.87 21.69C50.81 21.5 50.75 21.31 50.69 21.12C50.6 20.84 50.5 20.56 50.4 20.28C50.33 20.09 50.26 19.9 50.19 19.71C50.08 19.43 49.97 19.15 49.85 18.87C49.78 18.69 49.7 18.51 49.62 18.33C49.49 18.03 49.35 17.73 49.2 17.43C49.13 17.28 49.06 17.13 48.98 16.98C48.76 16.54 48.53 16.1 48.28 15.66C48.11 15.36 47.93 15.06 47.75 14.77C47.69 14.67 47.63 14.58 47.56 14.48C47.43 14.28 47.3 14.08 47.17 13.88C47.1 13.77 47.02 13.66 46.94 13.55C46.81 13.36 46.68 13.18 46.55 12.99C46.47 12.87 46.38 12.76 46.29 12.64C46.25 12.54 46.16 12.42 46.08 12.31ZM44.73 33.31C44.65 33.17 44.58 33.03 44.51 32.88C44.42 32.7 44.33 32.52 44.25 32.34C44.14 32.1 44.04 31.86 43.93 31.62C43.85 31.44 43.78 31.26 43.71 31.08C43.62 30.83 43.53 30.58 43.45 30.33C43.39 30.15 43.32 29.97 43.27 29.79C43.19 29.53 43.12 29.27 43.05 29.02C43 28.84 42.95 28.66 42.91 28.49C42.85 28.22 42.79 27.94 42.74 27.67C42.71 27.5 42.67 27.34 42.64 27.17C42.59 26.86 42.55 26.55 42.52 26.24C42.5 26.11 42.48 25.97 42.47 25.84C42.43 25.4 42.4 24.95 42.39 24.51C42.39 24.42 42.39 24.33 42.39 24.24C42.38 23.89 42.38 23.53 42.4 23.18C42.41 23.01 42.42 22.84 42.43 22.67C42.45 22.4 42.46 22.12 42.49 21.85C42.51 21.66 42.54 21.47 42.57 21.28C42.6 21.03 42.64 20.77 42.68 20.52C42.71 20.32 42.76 20.13 42.8 19.93C42.85 19.69 42.9 19.45 42.96 19.2C43.01 19 43.07 18.8 43.12 18.61C43.19 18.37 43.25 18.14 43.32 17.91C43.38 17.71 43.45 17.52 43.52 17.32C43.6 17.09 43.68 16.86 43.77 16.64C43.85 16.44 43.93 16.25 44.01 16.06C44.11 15.84 44.2 15.61 44.31 15.39C44.4 15.2 44.5 15.01 44.59 14.82C44.7 14.6 44.82 14.38 44.94 14.17C45.04 13.98 45.15 13.8 45.26 13.61C45.32 13.52 45.38 13.42 45.43 13.33C45.45 13.36 45.47 13.38 45.49 13.41C45.8 13.83 46.09 14.25 46.37 14.67C46.42 14.75 46.48 14.83 46.53 14.92C46.81 15.36 47.09 15.8 47.34 16.24C47.59 16.68 47.83 17.13 48.05 17.58C48.14 17.76 48.21 17.93 48.3 18.11C48.43 18.39 48.57 18.66 48.69 18.94C48.78 19.14 48.85 19.35 48.94 19.55C49.05 19.81 49.16 20.07 49.25 20.33C49.33 20.54 49.4 20.76 49.47 20.98C49.56 21.24 49.65 21.49 49.73 21.75C49.8 21.98 49.86 22.21 49.92 22.44C49.99 22.69 50.07 22.94 50.13 23.2C50.19 23.44 50.24 23.68 50.29 23.92C50.34 24.17 50.4 24.41 50.45 24.66C50.5 24.91 50.54 25.17 50.58 25.42C50.62 25.66 50.66 25.9 50.7 26.14C50.74 26.41 50.76 26.68 50.79 26.95C50.81 27.15 50.84 27.36 50.86 27.56C49.23 29.9 47.17 31.83 44.73 33.31ZM44.68 12.36C44.51 12.62 44.35 12.89 44.2 13.15C44.17 13.21 44.13 13.27 44.09 13.32C43.86 13.71 43.65 14.11 43.45 14.52C43.39 14.63 43.34 14.75 43.29 14.87C43.15 15.17 43.01 15.47 42.89 15.77C42.83 15.91 42.78 16.04 42.72 16.18C42.6 16.49 42.48 16.8 42.38 17.11C42.34 17.22 42.3 17.34 42.26 17.45C42.12 17.87 42 18.3 41.89 18.72C41.87 18.79 41.86 18.87 41.84 18.95C41.75 19.31 41.68 19.66 41.61 20.02C41.58 20.16 41.56 20.3 41.54 20.43C41.49 20.74 41.44 21.05 41.4 21.36C41.38 21.5 41.37 21.63 41.35 21.77C41.31 22.16 41.28 22.55 41.26 22.94C41.26 22.99 41.25 23.04 41.25 23.09C41.23 23.53 41.23 23.97 41.24 24.41C41.24 24.53 41.25 24.66 41.26 24.78C41.27 25.1 41.29 25.42 41.32 25.74C41.33 25.88 41.35 26.03 41.36 26.17C41.4 26.5 41.44 26.82 41.49 27.15C41.51 27.27 41.52 27.38 41.54 27.5C41.62 27.93 41.7 28.37 41.81 28.8C41.83 28.89 41.86 28.97 41.88 29.06C41.95 29.32 42.01 29.58 42.09 29.84C41.89 29.63 41.69 29.42 41.48 29.22C41.45 29.19 41.41 29.15 41.38 29.12C41.06 28.8 40.73 28.5 40.39 28.21C40.32 28.15 40.26 28.1 40.19 28.04C39.91 27.8 39.63 27.58 39.33 27.36C39.25 27.3 39.16 27.23 39.08 27.17C38.74 26.92 38.4 26.68 38.05 26.46C38.03 26.45 38.01 26.43 37.99 26.42C37.61 26.18 37.22 25.95 36.83 25.73C36.76 25.69 36.68 25.65 36.61 25.61C36.29 25.44 35.96 25.27 35.64 25.12C35.54 25.07 35.45 25.03 35.35 24.98C34.98 24.81 34.61 24.65 34.23 24.51C34.2 24.5 34.16 24.48 34.13 24.47C33.72 24.31 33.3 24.17 32.87 24.04C32.77 24.01 32.67 23.98 32.56 23.95C32.24 23.85 31.91 23.77 31.58 23.69C31.45 23.66 31.33 23.63 31.2 23.6C30.84 23.52 30.48 23.45 30.11 23.39C30.04 23.38 29.97 23.36 29.9 23.35C29.47 23.28 29.04 23.23 28.6 23.19C28.47 23.18 28.34 23.17 28.21 23.16C27.89 23.13 27.56 23.12 27.23 23.11C27.09 23.11 26.95 23.1 26.8 23.1C26.71 23.1 26.61 23.09 26.52 23.09C26.31 23.09 26.1 23.09 25.89 23.1C23.43 16.39 23.67 8.86 26.53 2.29C33.63 3.18 40.2 6.84 44.68 12.36ZM35.82 36.16C35.62 36.01 35.42 35.86 35.22 35.71C35.04 35.57 34.86 35.44 34.68 35.3C34.45 35.12 34.23 34.93 34.01 34.74C33.85 34.6 33.68 34.46 33.52 34.32C33.3 34.12 33.09 33.92 32.87 33.71C32.72 33.57 32.56 33.42 32.41 33.28C32.2 33.07 31.99 32.84 31.78 32.62C31.64 32.47 31.5 32.33 31.36 32.18C31.15 31.95 30.96 31.71 30.76 31.47C30.63 31.32 30.5 31.18 30.38 31.02C30.18 30.77 29.99 30.51 29.79 30.25C29.68 30.1 29.57 29.96 29.46 29.81C29.25 29.52 29.06 29.23 28.86 28.93C28.78 28.8 28.69 28.68 28.6 28.55C28.33 28.12 28.06 27.68 27.81 27.24C27.56 26.8 27.33 26.36 27.11 25.9C27.06 25.81 27.02 25.72 26.97 25.62C26.76 25.18 26.55 24.72 26.36 24.25C26.35 24.22 26.34 24.19 26.33 24.17C26.43 24.17 26.53 24.17 26.64 24.17C26.87 24.17 27.1 24.18 27.33 24.19C27.54 24.2 27.75 24.21 27.96 24.22C28.22 24.24 28.47 24.26 28.73 24.29C28.91 24.31 29.1 24.33 29.28 24.36C29.55 24.4 29.81 24.44 30.08 24.48C30.25 24.51 30.42 24.55 30.6 24.58C30.86 24.63 31.13 24.69 31.39 24.75C31.56 24.79 31.73 24.84 31.91 24.89C32.16 24.96 32.42 25.03 32.67 25.11C32.85 25.17 33.03 25.23 33.21 25.3C33.44 25.38 33.68 25.46 33.91 25.55C34.11 25.63 34.3 25.71 34.5 25.8C34.71 25.89 34.91 25.97 35.12 26.07C35.35 26.18 35.57 26.3 35.8 26.41C35.96 26.49 36.13 26.57 36.29 26.66C36.62 26.84 36.94 27.04 37.26 27.24C37.31 27.27 37.37 27.3 37.42 27.33C37.8 27.57 38.17 27.83 38.53 28.1C38.57 28.13 38.61 28.16 38.64 28.19C38.96 28.43 39.27 28.68 39.57 28.93C39.66 29.01 39.75 29.09 39.84 29.17C40.08 29.39 40.33 29.6 40.56 29.83C40.67 29.94 40.77 30.05 40.88 30.16C41.09 30.37 41.29 30.58 41.49 30.8C41.61 30.93 41.72 31.06 41.83 31.2C42.01 31.41 42.19 31.62 42.36 31.84C42.47 31.99 42.58 32.14 42.7 32.29C42.86 32.5 43.01 32.72 43.16 32.94C43.27 33.1 43.37 33.27 43.48 33.43C43.57 33.56 43.65 33.7 43.73 33.84C41.25 35.19 38.6 35.96 35.82 36.16ZM33.97 1.13C40.26 1.13 46.14 2.91 51.14 5.99C48.87 7.42 46.93 9.23 45.35 11.39L45.34 11.37L45.33 11.39C41.15 6.37 35.3 2.87 28.9 1.52C30.55 1.26 32.25 1.13 33.97 1.13ZM25.32 2.29C22.58 8.9 22.38 16.39 24.74 23.12H24.72L24.73 23.14C21.67 23.4 18.76 24.29 16.07 25.81L15.58 26.09L15.86 26.58C19.62 33.22 26.78 37.34 34.36 37.34C34.73 37.34 35.49 37.31 35.49 37.31L37.2 37.14C39.67 36.8 42.04 36.04 44.27 34.85C45.39 36.96 46.13 39.23 46.44 41.61C47.43 49.03 44.27 56.21 38.32 60.52C38.83 59.79 39.26 58.99 39.59 58.12C41.06 54.24 40.49 49.5 38.17 46.31C35.07 42.04 22.62 33.18 2.26 42.53C1.52 39.8 1.12 36.93 1.12 33.97C1.13 18.86 11.39 6.1 25.32 2.29ZM37.27 46.97C39.34 49.82 39.87 54.24 38.54 57.72C37.85 59.54 36.43 61.77 33.5 63.11C27.6 65.3 20.97 64.62 15.57 61.12L15.55 61.15C9.44 57 4.8 50.84 2.58 43.63C22.34 34.47 34.31 42.9 37.27 46.97Z" fill="#333333"/>
</svg>
