<svg width="30" height="34" viewBox="0 0 30 34" fill="none" xmlns="http://www.w3.org/2000/svg">
<path d="M7.55033 33.04C7.49033 33.04 7.42033 33.03 7.37033 33C7.19033 32.92 7.05033 32.77 7.05033 32.58C7.06033 30.6 7.07033 28.67 7.10033 26.72C7.10033 26.53 7.04033 26.45 6.85033 26.4C5.19033 25.93 3.82033 25.07 2.77033 23.85C1.97033 22.92 1.39033 21.81 1.03033 20.56C1.03033 20.55 1.02033 20.53 1.02033 20.52L0.990327 20.42C0.740327 19.72 0.620327 19 0.540327 18.38C0.200327 15.95 0.310327 13.5 0.460327 11.2C0.550327 9.68 0.850327 8.22 1.34033 6.87C2.21033 4.47 3.80033 2.85 6.18033 1.91C7.66033 1.33 9.29033 0.939999 11.1703 0.709999C13.4003 0.439999 15.5903 0.509999 17.4403 0.619999C19.6503 0.749999 21.8003 1.17 23.8203 1.88C26.3003 2.75 27.9103 4.41 28.7403 6.95C29.1703 8.28 29.4503 9.67 29.5803 11.19C29.6903 12.33 29.7203 13.31 29.6703 14.19L29.6403 14.82C29.6303 15.16 29.6203 15.51 29.5903 15.85L29.5703 16.18C29.5103 17.06 29.4403 18.06 29.2803 19.01C29.0503 20.49 28.6003 21.74 27.9003 22.86C27.8703 22.91 27.8203 22.97 27.7803 23.04L27.6903 23.16C27.2703 23.82 26.6803 24.42 25.9203 24.97C24.7703 25.8 23.5003 26.2 22.2903 26.5C20.6303 26.92 18.8703 27.2 16.9003 27.34C15.6303 27.43 14.3403 27.44 13.0603 27.37C12.7603 27.35 12.6103 27.42 12.4203 27.66C12.1903 27.97 11.9303 28.27 11.6703 28.57C11.4403 28.83 11.2303 29.07 11.0303 29.33C10.7603 29.67 10.4803 29.99 10.1903 30.31C9.95033 30.58 9.73033 30.83 9.52033 31.09C9.15033 31.55 8.57033 32.23 7.93033 32.9C7.83033 32.99 7.68033 33.04 7.55033 33.04ZM2.01033 20.34C2.32033 21.43 2.83033 22.39 3.52033 23.19C4.44033 24.26 5.65033 25.01 7.11033 25.43C7.73033 25.6 8.09033 26.08 8.09033 26.72C8.07033 28.24 8.06033 29.76 8.05033 31.27C8.32033 30.96 8.55033 30.67 8.74033 30.45C8.96033 30.18 9.19033 29.93 9.41033 29.67C9.71033 29.34 9.98033 29.03 10.2403 28.71C10.4503 28.45 10.6703 28.19 10.9003 27.94C11.1603 27.65 11.4003 27.37 11.6203 27.08C12.0003 26.57 12.4503 26.36 13.1103 26.39C14.3603 26.45 15.6103 26.44 16.8303 26.36C18.7403 26.22 20.4403 25.96 22.0403 25.55C23.1503 25.27 24.3203 24.9 25.3303 24.17C25.9903 23.69 26.4903 23.18 26.8603 22.61L26.9703 22.45C27.0003 22.42 27.0203 22.39 27.0403 22.36C27.6703 21.35 28.0803 20.21 28.2903 18.87C28.4403 17.96 28.5103 16.99 28.5703 16.13L28.5903 15.8C28.6103 15.47 28.6303 15.14 28.6403 14.81L28.6703 14.17C28.7103 13.34 28.6803 12.4 28.5803 11.31C28.4503 9.86 28.1903 8.54 27.7803 7.29C27.0603 5.06 25.6503 3.61 23.4803 2.85C21.5503 2.17 19.5003 1.77 17.3803 1.64C15.5703 1.53 13.4303 1.46 11.2803 1.72C9.48033 1.94 7.93033 2.31 6.53033 2.86C4.43033 3.68 3.03033 5.11 2.26033 7.23C1.80033 8.49 1.52033 9.85 1.44033 11.28C1.31033 13.5 1.20033 15.9 1.52033 18.24C1.60033 18.81 1.71033 19.47 1.92033 20.09L1.98033 20.25C2.00033 20.28 2.00033 20.31 2.01033 20.34Z" fill="#58595B"/>
<path d="M19.7807 13.06C19.7907 13.31 19.9407 13.46 20.1607 13.46C20.3707 13.46 20.5407 13.3 20.5507 13.07C20.5607 12.96 20.5507 12.85 20.5507 12.74C20.4307 10.65 19.4807 9.12003 17.5307 8.28003C16.9407 8.02003 16.3107 7.92003 15.6707 7.86003C15.4407 7.84003 15.2207 8.00003 15.1807 8.21003C15.1507 8.37003 15.3507 8.59003 15.5607 8.63003C15.8507 8.69003 16.1507 8.69003 16.4507 8.75003C18.1407 9.10003 19.3507 10.3 19.7007 11.98C19.7607 12.33 19.7707 12.69 19.7807 13.06Z" fill="#58595B"/>
<path d="M20.6804 17.26C20.1404 16.83 19.5604 16.45 18.9504 16.12C18.4404 15.85 17.8304 15.95 17.5104 16.34C17.3204 16.57 17.1604 16.82 16.9704 17.04C16.8204 17.22 16.4004 17.38 16.1504 17.32C15.0604 17.02 14.1104 16.47 13.3204 15.66C12.5304 14.84 11.9504 13.89 11.5704 12.82C11.4104 12.36 11.5104 12.02 11.9004 11.71C12.0404 11.6 12.1704 11.48 12.3204 11.38C12.8904 11 12.9704 10.27 12.6304 9.69002C12.1204 8.80002 11.5104 7.99003 10.8504 7.21003C10.5204 6.81003 10.0804 6.68003 9.61036 6.91003C8.83036 7.30003 8.17036 7.85003 7.74036 8.63003C7.51036 9.05003 7.48036 9.50003 7.64036 9.96003C7.92036 10.8 8.31036 11.58 8.71036 12.36C9.56036 14.01 10.5704 15.56 11.8804 16.88C12.5704 17.58 13.3304 18.18 14.1204 18.76C14.1304 18.77 14.1504 18.77 14.1604 18.78C15.6804 19.78 17.2504 20.66 18.9704 21.26C19.1204 21.31 19.2804 21.32 19.4304 21.31C19.7804 21.28 20.0904 21.13 20.3904 20.96C20.4204 20.93 20.4504 20.91 20.4804 20.88C21.0304 20.44 21.4904 19.91 21.8104 19.27C22.0504 18.78 21.9304 18.29 21.5204 17.96C21.2504 17.72 20.9704 17.49 20.6804 17.26Z" fill="#58595B"/>
<path d="M20.6405 8.46001C19.1505 6.76001 17.2405 5.98001 15.0005 5.95001C14.7405 5.95001 14.5605 6.12001 14.5605 6.35001C14.5605 6.57001 14.7305 6.72001 14.9905 6.73001C15.4005 6.75001 15.8005 6.77001 16.2005 6.84001C19.2105 7.34001 21.7405 9.80001 21.6705 13.8C21.6705 14 21.8305 14.19 22.0405 14.2C22.2605 14.21 22.4305 14.07 22.4405 13.85C22.4405 13.73 22.4405 13.6 22.4405 13.48C22.4505 13.13 22.4005 12.78 22.3605 12.43C22.1605 10.95 21.6405 9.60001 20.6405 8.46001Z" fill="#58595B"/>
<path d="M16.1507 9.80003C15.9407 9.81003 15.7807 9.95003 15.7607 10.15C15.7407 10.35 15.8807 10.52 16.0907 10.56C16.1807 10.58 16.2807 10.59 16.3807 10.59C17.1007 10.66 17.6007 11.05 17.8107 11.71C17.8807 11.93 17.9107 12.15 17.9207 12.38C17.9307 12.55 17.9807 12.69 18.1407 12.77C18.2707 12.84 18.4107 12.83 18.5307 12.75C18.6907 12.65 18.7207 12.49 18.6907 12.32C18.6907 12.09 18.6507 11.87 18.6007 11.66C18.3207 10.52 17.3207 9.76003 16.1507 9.80003Z" fill="#58595B"/>
</svg>
